<?xml version="1.0" standalone="no"?>
<!DOCTYPE svg PUBLIC "-//W3C//DTD SVG 20010904//EN"
 "http://www.w3.org/TR/2001/REC-SVG-20010904/DTD/svg10.dtd">
<svg version="1.0" xmlns="http://www.w3.org/2000/svg"
 width="700.000000pt" height="700.000000pt" viewBox="0 0 700.000000 700.000000"
 preserveAspectRatio="xMidYMid meet">
<metadata>
Created by potrace 1.11, written by Peter Selinger 2001-2013
</metadata>
<g transform="translate(0.000000,700.000000) scale(0.100000,-0.100000)"
fill="#000000" stroke="none">
<path d="M2685 6324 c-98 -18 -102 -19 -175 -44 -358 -120 -639 -421 -735
-786 -14 -52 -31 -154 -27 -166 1 -4 -42 -7 -96 -7 -454 -1 -847 -307 -962
-749 -20 -77 -24 -115 -24 -237 -1 -161 11 -231 58 -356 98 -261 304 -470 561
-572 145 -57 222 -69 460 -71 l210 -2 5 -1295 c5 -1214 6 -1297 23 -1322 40
-61 -63 -58 1531 -55 1437 3 1454 3 1476 23 37 33 51 73 50 133 -1 31 -1 608
-1 1282 l1 1225 208 1 c270 0 376 21 545 104 272 135 477 407 531 707 21 113
14 315 -14 423 -45 172 -135 332 -257 454 -68 68 -181 156 -201 156 -6 0 -12
3 -14 8 -3 7 -115 59 -173 80 -45 16 -116 34 -155 39 -73 8 -77 10 -90 60 -75
276 -325 529 -605 612 -104 30 -139 35 -270 34 -228 -1 -428 -77 -591 -226
-57 -53 -84 -64 -84 -36 0 39 -184 265 -281 345 -125 103 -284 181 -459 224
-107 27 -341 34 -445 14z m340 -235 c279 -47 519 -226 650 -487 19 -37 42 -94
52 -127 12 -38 30 -71 52 -93 31 -32 38 -34 82 -30 59 6 71 15 124 98 96 150
224 247 390 295 74 21 102 24 198 21 133 -4 207 -25 317 -90 151 -89 268 -245
308 -408 7 -27 17 -68 23 -93 12 -47 55 -94 87 -96 9 -1 31 -3 47 -4 17 -2 55
-6 85 -9 112 -11 215 -50 325 -122 396 -260 453 -835 114 -1164 -80 -78 -153
-126 -249 -164 -109 -44 -180 -54 -392 -55 l-197 -2 -3 524 -3 523 -25 31
c-14 17 -38 34 -55 38 -42 10 -2141 12 -2190 2 -35 -7 -81 -48 -394 -360 -194
-194 -366 -370 -382 -391 l-29 -39 0 -160 0 -159 -217 5 c-185 4 -229 8 -293
27 -369 107 -596 459 -545 845 13 99 76 248 138 330 177 232 427 337 717 301
101 -13 113 -13 146 2 45 21 62 58 68 148 8 122 15 162 47 259 110 332 392
565 736 609 105 13 168 12 268 -5z m1776 -1683 c3 -250 0 -3497 -4 -3503 -6
-9 -2583 -10 -2593 -1 -4 5 -9 2464 -4 2799 l0 35 309 0 c342 0 340 0 381 67
19 30 20 52 20 338 l0 305 945 0 945 0 1 -40z m-2131 -284 l0 -148 -151 0
-151 -1 149 149 c81 81 149 148 150 148 2 0 3 -67 3 -148z"/>
<path d="M3355 3018 c-16 -4 -38 -14 -47 -22 -24 -18 -46 -75 -42 -106 9 -54
13 -78 32 -170 11 -52 23 -108 25 -125 3 -16 33 -167 67 -335 75 -373 67 -329
86 -430 26 -139 41 -176 80 -201 82 -50 190 17 178 111 -1 14 -17 95 -34 180
-18 85 -34 166 -36 180 -3 14 -16 81 -30 150 -14 69 -27 134 -29 145 -1 11
-14 76 -29 145 -14 69 -28 136 -31 150 -49 255 -57 282 -88 309 -24 20 -70 28
-102 19z"/>
<path d="M2709 2640 c-137 -137 -256 -264 -263 -281 -29 -68 -16 -86 262 -363
140 -141 257 -256 259 -256 2 0 41 36 86 80 l81 80 -64 66 c-36 36 -127 127
-202 202 -76 76 -138 141 -138 147 0 5 91 101 202 212 l203 203 -80 80 c-44
44 -83 80 -88 80 -4 0 -121 -112 -258 -250z"/>
<path d="M3945 2810 l-80 -80 208 -208 207 -207 -163 -162 c-89 -89 -182 -182
-206 -207 l-45 -46 81 -80 c45 -44 84 -80 86 -80 3 0 497 493 516 515 2 2 7
22 11 44 6 32 3 47 -13 73 -21 35 -500 518 -514 518 -5 0 -44 -36 -88 -80z"/>
</g>
</svg>
