<svg viewBox="0 0 247 128" width="75%" height="75%">
    <defs id="SvgjsDefs13778"></defs>
    <g id="SvgjsG13779" featurekey="root" fill="#ffffff"></g>
    <g id="SvgjsG13780" featurekey="container1" fill="#000000" transform="matrix(2.268144184419614,0,0,2.268144184419614,0.00001668910896570203,0.009466565526911226)">
        <title xmlns="http://www.w3.org/2000/svg">mrh full stack</title>
        <path xmlns="http://www.w3.org/2000/svg" d="M23.11,55.78L1.69,43.41A3.39,3.39,0,0,1,0,40.48V15.75a3.39,3.39,0,0,1,1.69-2.94L23.11,0.45a3.39,3.39,0,0,1,3.39,0L47.91,12.82a3.39,3.39,0,0,1,1.69,2.94V40.48a3.39,3.39,0,0,1-1.69,2.94L26.5,55.78A3.39,3.39,0,0,1,23.11,55.78Z"></path>
    </g>
    <g id="SvgjsG13781" featurekey="symbol1" fill="#ffffff" transform="matrix(1.5217391304347827,0,0,1.5217391304347827,16.434782608695652,24.43478188307389)">
        <g>
            <path class="st0" d="M38,26.5h3.6c4.1,0,7.4-3.3,7.4-7.4c0-4.1-3.3-7.4-7.4-7.4c0,0-0.1,0-0.1,0c-0.4-3.3-3.2-5.9-6.6-5.9   c-2.6,0-4.8,1.5-5.9,3.6c-1-3.7-4.3-6.4-8.3-6.4c-4.8,0-8.6,3.9-8.6,8.6c0,0.1,0,0.1,0,0.2c-0.5-0.1-1.1-0.2-1.7-0.2   C6.3,11.6,3,14.9,3,19c0,4.1,3.3,7.4,7.4,7.4H14" style="fill: none; stroke: #ffffff; stroke-width: 2; stroke-linejoin: round; stroke-miterlimit: 10;"></path>
            <g>
                <polygon class="st0" points="20,23 20,17 14,23   " style="fill: none; stroke: #ffffff; stroke-width: 2; stroke-linejoin: round; stroke-miterlimit: 10;"></polygon>
                <polygon class="st0" points="20,17 38,17 38,49 14,49 14,23   " style="fill: none; stroke: #ffffff; stroke-width: 2; stroke-linejoin: round; stroke-miterlimit: 10;"></polygon>
            </g>
            <polyline class="st0" points="22.2,40.2 18,36 22.2,31.8  " style="fill: none; stroke: #ffffff; stroke-width: 2; stroke-linejoin: round; stroke-miterlimit: 10;"></polyline>
            <polyline class="st0" points="29.8,31.8 34,36 29.8,40.2  " style="fill: none; stroke: #ffffff; stroke-width: 2; stroke-linejoin: round; stroke-miterlimit: 10;"></polyline>
            <line class="st1" x1="25" y1="31" x2="27" y2="41" style="fill: none; stroke: #ffffff; stroke-width: 2; stroke-linecap: round; stroke-linejoin: round; stroke-miterlimit: 10;"></line>
        </g>
    </g>
    <g id="SvgjsG13782" featurekey="text1" fill="#000000" transform="matrix(2.581891543578366,0,0,2.581891543578366,129.595168938531,7.231108318907786)">
        <path d="M16.641 21.005875 q0.9375 1.11328125 1.89453125 1.11328125 l0 1.8652 q-1.669921875 0 -3.046875 -1.474609375 q-0.8203125 -0.869140625 -2.080078125 -3.06640625 q-1.044921875 -1.826171875 -1.611328125 -2.48046875 q-0.91796875 -1.11328125 -1.865234375 -1.11328125 q-0.95703125 0 -1.875 1.11328125 q-0.56640625 0.654296875 -1.611328125 2.48046875 q-1.259765625 2.197265625 -2.080078125 3.06640625 q-1.3671875 1.474609375 -3.046875 1.474609375 l0 -1.8652 q0.95703125 0 1.89453125 -1.11328125 q0.56640625 -0.673828125 1.630859375 -2.5 q1.259765625 -2.177734375 2.060546875 -3.046875 q1.3671875 -1.474609375 3.02734375 -1.474609375 q1.650390625 0 3.017578125 1.474609375 q0.537109375 0.5859375 1.279296875 1.748046875 q0.7421875 -1.162109375 1.279296875 -1.748046875 q1.3671875 -1.474609375 3.02734375 -1.474609375 q1.650390625 0 3.017578125 1.474609375 q0.80078125 0.869140625 2.060546875 3.046875 q1.064453125 1.826171875 1.630859375 2.5 q0.9375 1.11328125 1.89453125 1.11328125 l0 1.8652 q-1.669921875 0 -3.046875 -1.474609375 q-0.8203125 -0.869140625 -2.080078125 -3.06640625 q-1.044921875 -1.826171875 -1.611328125 -2.48046875 q-0.91796875 -1.11328125 -1.865234375 -1.11328125 q-0.95703125 0 -1.875 1.11328125 q-0.498046875 0.576171875 -1.357421875 2.041015625 q0.849609375 1.42578125 1.337890625 2.001953125 z M28.3525796875 23.984375 l0 -7.6563 q0 -0.556640625 -0.3515625 -0.78125 l1.0254 -1.5625 q1.19140625 0.80078125 1.19140625 2.265625 l0 7.7344 l-1.8652 0 z M31.4677796875 15.351575 q0 -0.56640625 0.390625 -0.95703125 q0.41015625 -0.41015625 0.9765625 -0.41015625 t0.97656 0.41016 q0.390625 0.390625 0.390625 0.95703125 q0 0.5859375 -0.390625 0.9765625 q-0.41015625 0.41015625 -0.9765625 0.41015625 t-0.97656 -0.41016 q-0.390625 -0.390625 -0.390625 -0.9765625 z M37.28125625 23.984375 l-1.8652 0 l0 -11.66 q0 -0.556640625 -0.3515625 -0.78125 l1.0254 -1.5625 q1.19140625 0.80078125 1.19140625 2.265625 l0 3.3105 q1.34765625 -1.572265625 3.134765625 -1.572265625 q2.060546875 0 3.525390625 1.455078125 q1.474609375 1.484375 1.474609375 3.544921875 l0 2.6563 q0 0.556640625 0.3515625 0.78125 l-1.0254 1.5625 q-1.19140625 -0.80078125 -1.19140625 -2.265625 l0 -2.7344 l-0.0097656 0 q0 -1.30859375 -0.908203125 -2.216796875 q-0.91796875 -0.9375 -2.216796875 -0.9375 q-1.30859375 0 -2.216796875 0.9375 q-0.80078125 0.78125 -0.91796875 1.845703125 l0 5.3711 z"></path>
    </g>
    <g id="SvgjsG13783" featurekey="text3" fill="#000000" transform="matrix(1.0711202244030866,0,0,1.0711202244030866,140.96445746610834,73.3098181798371)">
        <path d="M8.6133 13.984375 q0.556640625 0 0.78125 -0.3515625 l1.5625 1.0254 q-0.80078125 1.19140625 -2.265625 1.19140625 l-4.5801 0 q-0.234375 0 -0.458984375 0.1220703125 t-0.34668 0.34668 t-0.12207 0.46875 l0 4.9316 q0 1.46484375 -1.19140625 2.265625 l-1.0254 -1.5625 q0.3515625 -0.224609375 0.3515625 -0.78125 l0 -4.8535 q0 -0.732421875 0.3759765625 -1.40625 t1.04 -1.0352 t1.377 -0.36133 l4.502 0 z M7.1191 19.941375 q-0.419921875 0.419921875 -0.986328125 0.419921875 q-0.556640625 0 -0.9765625 -0.419921875 q-0.390625 -0.390625 -0.390625 -0.9765625 q0 -0.56640625 0.390625 -0.95703125 q0.419921875 -0.41015625 0.9765625 -0.41015625 q0.56640625 0 0.986328125 0.41015625 q0.390625 0.390625 0.390625 0.95703125 q0 0.5859375 -0.390625 0.9765625 z M12.1709390625 16.328075 q0 -0.556640625 -0.3515625 -0.78125 l1.0254 -1.5625 q1.19140625 0.80078125 1.19140625 2.265625 l0 3.1055 q0.1171875 1.064453125 0.91796875 1.845703125 q0.908203125 0.9375 2.216796875 0.9375 q1.298828125 0 2.216796875 -0.9375 q0.908203125 -0.908203125 0.908203125 -2.216796875 l0.0097656 0 l0 -5 l1.8652 0 l0 7.6563 q0 0.556640625 0.3515625 0.78125 l-1.0254 1.5625 q-0.7421875 -0.498046875 -1.015625 -1.25 q-1.40625 1.25 -3.310546875 1.25 q-2.0703125 0 -3.544921875 -1.455078125 q-1.455078125 -1.484375 -1.455078125 -3.544921875 l0 -2.6563 z M23.38480625 9.980375 l1.8652 0 l0 11.66 q0 0.556640625 0.3515625 0.78125 l-1.0254 1.5625 q-1.19140625 -0.80078125 -1.19140625 -2.265625 l0 -11.738 z M26.4639078125 9.980375 l1.8652 0 l0 11.66 q0 0.556640625 0.3515625 0.78125 l-1.0254 1.5625 q-1.19140625 -0.80078125 -1.19140625 -2.265625 l0 -11.738 z  M46.7333578125 15.849575 q-0.95703125 0 -1.875 1.11328125 q-0.56640625 0.654296875 -1.611328125 2.48046875 q-1.259765625 2.197265625 -2.080078125 3.06640625 q-1.3671875 1.474609375 -3.046875 1.474609375 l0 -1.8652 q0.95703125 0 1.89453125 -1.11328125 q0.56640625 -0.673828125 1.630859375 -2.5 q1.259765625 -2.177734375 2.060546875 -3.046875 q1.3671875 -1.474609375 3.02734375 -1.474609375 l0 1.8652 z M50.21290625 15.849575 q-1.46484375 0 -2.265625 -1.19140625 l1.5625 -1.0254 q0.224609375 0.3515625 0.78125 0.3515625 l3.6523 0 l0 1.8652 l-1.8652 0 l0 5.791 q0 0.556640625 0.3515625 0.78125 l-1.0254 1.5625 q-1.19140625 -0.80078125 -1.19140625 -2.265625 l0 -5.8691 z M63.2822671875 18.818375 q-0.791015625 -1.318359375 -1.25 -1.85546875 q-0.91796875 -1.11328125 -1.875 -1.11328125 q-1.30859375 0 -2.216796875 0.91796875 q-0.9375 0.908203125 -0.9375 2.216796875 t0.9375 2.2168 q0.908203125 0.9375 2.216796875 0.9375 q1.298828125 0 2.216796875 -0.9375 q0.908203125 -0.908203125 0.908203125 -2.216796875 l0 -0.16602 z M60.1572671875 13.984375 q1.66015625 0 3.02734375 1.474609375 q0.80078125 0.869140625 2.060546875 3.046875 q1.064453125 1.826171875 1.630859375 2.5 q0.9375 1.11328125 1.89453125 1.11328125 l0 1.8652 q-1.6796875 0 -3.046875 -1.474609375 q-0.44921875 -0.478515625 -1.044921875 -1.3671875 q-0.361328125 0.7421875 -0.99609375 1.38671875 q-1.46484375 1.455078125 -3.525390625 1.455078125 q-2.0703125 0 -3.544921875 -1.455078125 q-1.455078125 -1.484375 -1.455078125 -3.544921875 t1.4551 -3.5254 q1.474609375 -1.474609375 3.544921875 -1.474609375 z M78.509815625 22.529275 q-1.46484375 1.455078125 -3.525390625 1.455078125 q-2.0703125 0 -3.544921875 -1.455078125 q-1.455078125 -1.484375 -1.455078125 -3.544921875 t1.4551 -3.5254 q1.474609375 -1.474609375 3.544921875 -1.474609375 q2.060546875 0 3.525390625 1.474609375 l-1.3086 1.3086 q-0.91796875 -0.91796875 -2.216796875 -0.91796875 q-1.30859375 0 -2.216796875 0.91796875 q-0.9375 0.908203125 -0.9375 2.216796875 t0.9375 2.2168 q0.908203125 0.9375 2.216796875 0.9375 q1.298828125 0 2.216796875 -0.9375 z M87.8974734375 18.964875 q0.859375 1.46484375 1.357421875 2.041015625 q0.908203125 1.11328125 1.865234375 1.11328125 l0 1.8652 q-1.650390625 0 -3.017578125 -1.474609375 q-0.546875 -0.576171875 -1.279296875 -1.748046875 q-0.7421875 1.162109375 -1.2890625 1.748046875 q-1.3671875 1.474609375 -3.017578125 1.474609375 q-0.712890625 0 -1.376953125 -0.361328125 t-1.04 -1.0352 t-0.37598 -1.4063 l0 -8.8574 q0 -0.556640625 -0.3515625 -0.78125 l1.0254 -1.5625 q1.19140625 0.80078125 1.19140625 2.265625 l0 8.9355 q0 0.244140625 0.1220703125 0.46875 t0.34668 0.34668 t0.45898 0.12207 q0.95703125 0 1.865234375 -1.11328125 q0.56640625 -0.654296875 1.611328125 -2.48046875 q1.259765625 -2.197265625 2.08984375 -3.06640625 q1.3671875 -1.474609375 3.037109375 -1.474609375 l0 1.8652 q-0.95703125 0 -1.884765625 1.11328125 q-0.48828125 0.576171875 -1.337890625 2.001953125 z"></path>
    </g>
</svg>