<?xml version="1.0" standalone="no"?><!-- Generator: Gravit.io --><svg xmlns="http://www.w3.org/2000/svg" xmlns:xlink="http://www.w3.org/1999/xlink" style="isolation:isolate" viewBox="0 0 185.25 96" width="185.25" height="96"><defs><clipPath id="_clipPath_WsyylndqHLAaHGfpnGfibqSauEiEBufH"><rect width="185.25" height="96"/></clipPath></defs><g clip-path="url(#_clipPath_WsyylndqHLAaHGfpnGfibqSauEiEBufH)"><g><path d=" M 39.313 94.895 L 2.875 73.852 C 1.097 72.822 0.002 70.923 0 68.868 L 0 26.8 C -0.004 24.739 1.092 22.832 2.875 21.798 L 39.313 0.773 C 41.097 -0.258 43.295 -0.258 45.079 0.773 L 81.5 21.815 C 83.283 22.849 84.379 24.756 84.375 26.817 L 84.375 68.868 C 84.379 70.929 83.283 72.836 81.5 73.869 L 45.079 94.895 C 43.295 95.925 41.097 95.925 39.313 94.895 Z " fill="rgb(0,0,0)"/></g><g><g><path d=" M 55.696 46.521 L 59.804 46.521 C 64.484 46.521 68.25 42.754 68.25 38.075 C 68.25 33.396 64.484 29.629 59.804 29.629 C 59.804 29.629 59.69 29.629 59.69 29.629 C 59.234 25.863 56.038 22.896 52.158 22.896 C 49.19 22.896 46.679 24.608 45.424 27.004 C 44.283 22.782 40.516 19.7 35.951 19.7 C 30.473 19.7 26.136 24.151 26.136 29.515 C 26.136 29.629 26.136 29.629 26.136 29.743 C 25.565 29.629 24.88 29.515 24.196 29.515 C 19.516 29.515 15.75 33.282 15.75 37.961 C 15.75 42.64 19.516 46.407 24.196 46.407 L 28.304 46.407" fill="none" vector-effect="non-scaling-stroke" stroke-width="2.283" stroke="rgb(255,255,255)" stroke-linejoin="round" stroke-linecap="butt" stroke-miterlimit="10"/><g><path d=" M 35.152 42.526 L 35.152 35.678 L 28.304 42.526 L 35.152 42.526 Z " fill="none" vector-effect="non-scaling-stroke" stroke-width="2.283" stroke="rgb(255,255,255)" stroke-linejoin="round" stroke-linecap="butt" stroke-miterlimit="10"/><path d=" M 35.152 35.678 L 55.696 35.678 L 55.696 72.2 L 28.304 72.2 L 28.304 42.526 L 35.152 35.678 Z " fill="none" vector-effect="non-scaling-stroke" stroke-width="2.283" stroke="rgb(255,255,255)" stroke-linejoin="round" stroke-linecap="butt" stroke-miterlimit="10"/></g><path d=" M 37.663 62.157 L 32.87 57.363 L 37.663 52.57" fill="none" vector-effect="non-scaling-stroke" stroke-width="2.283" stroke="rgb(255,255,255)" stroke-linejoin="round" stroke-linecap="butt" stroke-miterlimit="10"/><path d=" M 46.337 52.57 L 51.13 57.363 L 46.337 62.157" fill="none" vector-effect="non-scaling-stroke" stroke-width="2.283" stroke="rgb(255,255,255)" stroke-linejoin="round" stroke-linecap="butt" stroke-miterlimit="10"/><line x1="40.859" y1="51.657" x2="43.141" y2="63.07" vector-effect="non-scaling-stroke" stroke-width="2.283" stroke="rgb(255,255,255)" stroke-linejoin="round" stroke-linecap="round" stroke-miterlimit="10"/></g></g><g><path d=" M 129.42 45.049 Q 131.236 47.205 133.089 47.205 L 133.089 50.817 Q 129.855 50.817 127.189 47.962 Q 125.6 46.279 123.161 42.024 Q 121.138 38.488 120.041 37.221 Q 118.263 35.065 116.429 35.065 Q 114.576 35.065 112.798 37.221 Q 111.701 38.488 109.678 42.024 Q 107.238 46.279 105.65 47.962 Q 103.003 50.817 99.75 50.817 L 99.75 47.205 Q 101.603 47.205 103.419 45.049 Q 104.515 43.745 106.577 40.208 Q 109.016 35.991 110.567 34.308 Q 113.214 31.453 116.429 31.453 Q 119.625 31.453 122.272 34.308 Q 123.312 35.443 124.749 37.693 Q 126.187 35.443 127.227 34.308 Q 129.874 31.453 133.089 31.453 Q 136.285 31.453 138.932 34.308 Q 140.483 35.991 142.922 40.208 Q 144.984 43.745 146.08 45.049 Q 147.896 47.205 149.749 47.205 L 149.749 50.817 Q 146.515 50.817 143.849 47.962 Q 142.26 46.279 139.821 42.024 Q 137.798 38.488 136.701 37.221 Q 134.923 35.065 133.089 35.065 Q 131.236 35.065 129.458 37.221 Q 128.494 38.336 126.83 41.173 Q 128.475 43.934 129.42 45.049 L 129.42 45.049 Z  M 152.099 50.817 L 152.099 35.991 Q 152.099 34.913 151.418 34.478 L 153.404 31.453 Q 155.711 33.003 155.711 35.84 L 155.711 50.817 L 152.099 50.817 L 152.099 50.817 Z  M 158.131 34.1 Q 158.131 33.004 158.888 32.247 Q 159.682 31.453 160.779 31.453 Q 161.875 31.453 162.67 32.247 Q 163.426 33.004 163.426 34.1 Q 163.426 35.235 162.67 35.991 Q 161.875 36.786 160.779 36.786 Q 159.682 36.786 158.888 35.991 Q 158.131 35.235 158.131 34.1 Z  M 169.388 50.817 L 165.777 50.817 L 165.777 28.238 Q 165.777 27.161 165.096 26.726 L 167.082 23.7 Q 169.389 25.251 169.389 28.087 L 169.389 34.498 Q 171.998 31.453 175.459 31.453 Q 179.449 31.453 182.285 34.271 Q 185.141 37.145 185.141 41.135 L 185.141 46.279 Q 185.141 47.357 185.822 47.792 L 183.836 50.817 Q 181.529 49.267 181.529 46.43 L 181.529 41.135 L 181.51 41.135 Q 181.51 38.601 179.751 36.843 Q 177.974 35.027 175.459 35.027 Q 172.925 35.027 171.166 36.843 Q 169.615 38.355 169.389 40.417 L 169.389 50.817 L 169.388 50.817 Z " fill="rgb(0,0,0)"/></g><g><path d=" M 112.643 65.167 Q 113.09 65.167 113.27 64.884 L 114.526 65.708 Q 113.882 66.665 112.706 66.665 L 109.026 66.665 Q 108.838 66.665 108.657 66.763 Q 108.477 66.861 108.379 67.042 Q 108.281 67.222 108.281 67.418 L 108.281 71.38 Q 108.281 72.557 107.324 73.2 L 106.5 71.945 Q 106.782 71.764 106.782 71.317 L 106.782 67.418 Q 106.782 66.83 107.084 66.288 Q 107.386 65.747 107.92 65.457 Q 108.453 65.166 109.026 65.167 L 112.643 65.167 L 112.643 65.167 Z  M 111.442 69.952 Q 111.105 70.289 110.65 70.289 Q 110.203 70.289 109.866 69.952 Q 109.552 69.638 109.552 69.168 Q 109.552 68.713 109.866 68.399 Q 110.203 68.069 110.65 68.069 Q 111.105 68.069 111.442 68.399 Q 111.756 68.713 111.756 69.168 Q 111.756 69.638 111.442 69.952 Z  M 115.501 67.049 Q 115.501 66.602 115.218 66.422 L 116.042 65.167 Q 116.999 65.81 116.999 66.987 L 116.999 69.481 Q 117.093 70.336 117.737 70.964 Q 118.466 71.717 119.517 71.717 Q 120.561 71.717 121.298 70.964 Q 122.028 70.235 122.028 69.183 L 122.036 69.183 L 122.036 65.167 L 123.534 65.167 L 123.534 71.317 Q 123.534 71.764 123.817 71.945 L 122.993 73.2 Q 122.397 72.8 122.177 72.196 Q 121.047 73.2 119.517 73.2 Q 117.854 73.2 116.67 72.031 Q 115.501 70.839 115.501 69.183 L 115.501 67.049 L 115.501 67.049 Z  M 124.509 61.95 L 126.008 61.95 L 126.008 71.317 Q 126.008 71.764 126.29 71.945 L 125.466 73.2 Q 124.509 72.556 124.509 71.38 L 124.509 61.95 L 124.509 61.95 Z  M 126.983 61.95 L 128.481 61.95 L 128.481 71.317 Q 128.481 71.764 128.764 71.945 L 127.94 73.2 Q 126.983 72.556 126.983 71.38 L 126.983 61.95 L 126.983 61.95 Z  M 143.266 66.665 Q 142.497 66.665 141.76 67.559 Q 141.305 68.085 140.465 69.552 Q 139.453 71.317 138.794 72.015 Q 137.696 73.2 136.347 73.2 L 136.347 71.702 Q 137.116 71.702 137.869 70.807 Q 138.324 70.266 139.179 68.799 Q 140.191 67.049 140.834 66.351 Q 141.932 65.167 143.266 65.167 L 143.266 66.665 Z  M 146.061 66.665 Q 144.885 66.665 144.241 65.708 L 145.497 64.884 Q 145.677 65.167 146.124 65.167 L 149.058 65.167 L 149.058 66.665 L 147.56 66.665 L 147.56 71.317 Q 147.56 71.764 147.842 71.945 L 147.018 73.2 Q 146.061 72.557 146.061 71.38 L 146.061 66.665 L 146.061 66.665 Z  M 156.561 69.05 Q 155.925 67.991 155.556 67.559 Q 154.819 66.665 154.05 66.665 Q 152.999 66.665 152.269 67.402 Q 151.516 68.132 151.516 69.183 Q 151.516 70.235 152.269 70.964 Q 152.999 71.717 154.05 71.717 Q 155.093 71.717 155.831 70.964 Q 156.561 70.235 156.561 69.183 L 156.561 69.05 L 156.561 69.05 Z  M 154.05 65.167 Q 155.384 65.167 156.482 66.351 Q 157.125 67.049 158.137 68.799 Q 158.993 70.266 159.448 70.807 Q 160.201 71.702 160.969 71.702 L 160.969 73.2 Q 159.62 73.2 158.522 72.015 Q 158.161 71.631 157.682 70.917 Q 157.392 71.513 156.882 72.031 Q 155.705 73.2 154.05 73.2 Q 152.387 73.2 151.202 72.031 Q 150.033 70.839 150.033 69.183 Q 150.033 67.528 151.202 66.351 Q 152.387 65.167 154.05 65.167 L 154.05 65.167 Z  M 168.793 72.031 Q 167.617 73.2 165.961 73.2 Q 164.298 73.2 163.114 72.031 Q 161.945 70.839 161.945 69.183 Q 161.945 67.528 163.114 66.351 Q 164.298 65.167 165.961 65.167 Q 167.617 65.167 168.793 66.351 L 167.742 67.402 Q 167.005 66.665 165.961 66.665 Q 164.91 66.665 164.181 67.402 Q 163.427 68.132 163.427 69.183 Q 163.427 70.235 164.181 70.964 Q 164.91 71.717 165.961 71.717 Q 167.005 71.717 167.742 70.964 L 168.793 72.031 Z  M 176.335 69.168 Q 177.025 70.344 177.425 70.807 Q 178.155 71.702 178.924 71.702 L 178.924 73.2 Q 177.598 73.2 176.5 72.015 Q 176.06 71.552 175.472 70.611 Q 174.876 71.545 174.436 72.015 Q 173.338 73.2 172.012 73.2 Q 171.44 73.2 170.906 72.91 Q 170.373 72.619 170.071 72.078 Q 169.769 71.537 169.769 70.948 L 169.769 63.833 Q 169.769 63.386 169.486 63.205 L 170.31 61.95 Q 171.267 62.593 171.267 63.77 L 171.267 70.948 Q 171.267 71.144 171.365 71.325 Q 171.463 71.505 171.644 71.603 Q 171.824 71.701 172.012 71.701 Q 172.781 71.701 173.511 70.807 Q 173.966 70.281 174.805 68.814 Q 175.817 67.049 176.484 66.351 Q 177.582 65.166 178.924 65.166 L 178.924 66.665 Q 178.155 66.665 177.41 67.559 Q 177.017 68.022 176.335 69.167 L 176.335 69.168 Z " fill="rgb(0,0,0)"/></g></g></svg>