<?xml version="1.0" standalone="no"?><!-- Generator: Gravit.io -->
<svg xmlns="http://www.w3.org/2000/svg" 
    xmlns:xlink="http://www.w3.org/1999/xlink" style="isolation:isolate" viewBox="0 0 90 90" width="90" height="90">
    <defs>
        <clipPath id="_clipPath_gQPThju2d8l8Xx1PeQhzD9rN5YV9YczC">
            <rect width="90" height="90"/>
        </clipPath>
    </defs>
    <g clip-path="url(#_clipPath_gQPThju2d8l8Xx1PeQhzD9rN5YV9YczC)">
        <g>
            <g>
                <g>
                    <path d=" M 35.87 40.435 L 35.87 31.304 L 26.739 40.435 L 35.87 40.435 Z " fill="none" vector-effect="non-scaling-stroke" stroke-width="3.043" stroke="rgb(0,0,0)" stroke-linejoin="round" stroke-linecap="butt" stroke-miterlimit="10"/>
                    <path d=" M 35.87 31.304 L 63.261 31.304 L 63.261 80 L 26.739 80 L 26.739 40.435 L 35.87 31.304 Z " fill="none" vector-effect="non-scaling-stroke" stroke-width="3.043" stroke="rgb(0,0,0)" stroke-linejoin="round" stroke-linecap="butt" stroke-miterlimit="10"/>
                    <line x1="43.478" y1="52.609" x2="46.522" y2="67.826" vector-effect="non-scaling-stroke" stroke-width="3.043" stroke="rgb(0,0,0)" stroke-linejoin="round" stroke-linecap="round" stroke-miterlimit="10"/>
                    <path d=" M 39.217 66.609 L 32.826 60.217 L 39.217 53.826" fill="none" vector-effect="non-scaling-stroke" stroke-width="3.043" stroke="rgb(0,0,0)" stroke-linejoin="round" stroke-linecap="butt" stroke-miterlimit="10"/>
                    <path d=" M 50.783 53.826 L 57.174 60.217 L 50.783 66.609" fill="none" vector-effect="non-scaling-stroke" stroke-width="3.043" stroke="rgb(0,0,0)" stroke-linejoin="round" stroke-linecap="butt" stroke-miterlimit="10"/>
                </g>
                <path d=" M 63.261 45.761 L 68.739 45.761 C 74.978 45.761 80 40.739 80 34.5 C 80 28.261 74.978 23.239 68.739 23.239 C 68.739 23.239 68.587 23.239 68.587 23.239 C 67.978 18.217 63.717 14.261 58.543 14.261 C 54.587 14.261 51.239 16.543 49.565 19.739 C 48.043 14.109 43.022 10 36.935 10 C 29.63 10 23.848 15.935 23.848 23.087 C 23.848 23.239 23.848 23.239 23.848 23.391 C 23.087 23.239 22.174 23.087 21.261 23.087 C 15.022 23.087 10 28.109 10 34.348 C 10 40.587 15.022 45.609 21.261 45.609 L 26.739 45.609" fill="none" vector-effect="non-scaling-stroke" stroke-width="3.043" stroke="rgb(0,0,0)" stroke-linejoin="round" stroke-linecap="butt" stroke-miterlimit="10"/>
            </g>
        </g>
    </g>
</svg>