<?xml version="1.0" standalone="no"?><!-- Generator: Gravit.io --><svg xmlns="http://www.w3.org/2000/svg" xmlns:xlink="http://www.w3.org/1999/xlink" style="isolation:isolate" viewBox="0 0 115 188" width="115" height="188"><defs><clipPath id="_clipPath_HqziTzrnJUN5Iy8MXK9CwRQtPJiF1cFM"><rect width="115" height="188"/></clipPath></defs><g clip-path="url(#_clipPath_HqziTzrnJUN5Iy8MXK9CwRQtPJiF1cFM)"><g><g><path d=" M 85.219 186.422 Q 83.809 187.459 82.17 187.833 Q 80.531 188.206 78.872 188.206 Q 73.188 188.206 68.769 186.526 Q 64.35 184.845 61.01 181.9 Q 57.67 178.954 55.326 174.971 Q 52.982 170.988 51.426 166.382 Q 49.87 161.777 49.041 156.757 Q 48.211 151.737 47.92 146.737 Q 47.63 141.738 47.775 136.946 Q 47.92 132.154 48.335 128.046 Q 47.588 129.166 46.51 131.614 Q 45.431 134.062 44.124 137.34 Q 42.817 140.618 41.407 144.497 Q 39.996 148.376 38.606 152.318 Q 37.216 156.259 35.909 160.056 Q 34.602 163.852 33.586 166.964 Q 32.569 170.075 31.843 172.254 Q 31.117 174.432 30.91 175.179 Q 30.744 175.676 30.474 176.423 Q 30.204 177.17 29.81 177.875 Q 29.416 178.581 28.897 179.079 Q 28.379 179.576 27.715 179.576 Q 26.968 179.576 26.47 178.975 Q 25.972 178.373 25.661 177.543 Q 25.35 176.714 25.163 175.884 Q 24.977 175.054 24.894 174.556 Q 24.645 172.814 24.437 170.158 Q 24.23 167.503 24.085 164.267 Q 23.939 161.031 23.856 157.359 Q 23.773 153.687 23.711 149.974 Q 23.649 146.26 23.628 142.671 Q 23.607 139.082 23.587 135.95 Q 23.566 132.818 23.566 130.329 L 23.566 126.346 Q 22.653 128.42 21.388 131.615 Q 20.122 134.809 18.65 138.793 Q 17.177 142.776 15.579 147.36 Q 13.982 151.944 12.426 156.799 Q 10.87 161.654 9.439 166.591 Q 8.007 171.528 6.887 176.175 Q 6.763 176.59 6.576 177.191 Q 6.389 177.793 6.099 178.332 Q 5.809 178.872 5.373 179.266 Q 4.937 179.66 4.315 179.66 Q 3.734 179.66 3.278 179.286 Q 2.821 178.913 2.51 178.394 Q 2.199 177.876 2.012 177.274 Q 1.825 176.673 1.784 176.175 Q 1.577 175.138 1.431 173.893 Q 1.286 172.648 1.182 171.341 Q 1.079 170.034 0.996 168.769 Q 0.913 167.504 0.83 166.425 Q 0.373 160.741 0.187 155.181 Q 0 149.622 0 143.979 Q 0 138.419 0.187 132.943 Q 0.373 127.466 0.747 121.865 Q 0.871 120.247 1.12 118.235 Q 1.369 116.223 2.095 114.439 Q 2.821 112.655 4.211 111.451 Q 5.601 110.248 8.007 110.248 Q 8.588 110.248 9.003 110.518 Q 9.418 110.788 9.418 111.451 L 9.418 111.866 Q 9.045 114.356 8.671 116.824 Q 8.298 119.293 7.883 121.865 Q 6.887 130.163 6.203 138.44 Q 5.518 146.717 5.518 155.098 Q 5.518 158.376 5.643 161.571 Q 5.767 164.765 6.099 168.002 Q 8.962 159.123 11.14 152.277 Q 13.318 145.431 14.978 140.287 Q 16.637 135.142 17.778 131.512 Q 18.919 127.882 19.707 125.433 Q 20.496 122.985 20.952 121.513 Q 21.409 120.04 21.699 119.231 Q 21.989 118.421 22.114 118.048 Q 22.238 117.675 22.363 117.384 Q 22.985 115.974 24.064 114.853 Q 25.143 113.733 26.844 113.733 Q 28.005 113.733 28.731 114.314 Q 29.457 114.895 29.872 115.766 Q 30.287 116.638 30.432 117.675 Q 30.578 118.712 30.578 119.583 Q 30.495 126.014 30.204 132.3 Q 29.914 138.585 29.706 144.768 Q 29.499 150.95 29.52 157.048 Q 29.54 163.147 30.08 169.205 Q 31.739 164.309 33.15 159.973 Q 34.561 155.638 35.826 151.696 Q 37.091 147.755 38.274 144.104 Q 39.456 140.452 40.722 136.885 Q 41.987 133.317 43.356 129.748 Q 44.726 126.18 46.385 122.405 Q 46.759 121.658 47.215 120.89 Q 47.671 120.123 48.252 119.501 Q 48.833 118.878 49.58 118.463 Q 50.327 118.048 51.239 118.048 Q 52.526 118.048 53.272 118.878 Q 54.019 119.708 54.413 120.87 Q 54.807 122.031 54.932 123.297 Q 55.056 124.562 55.056 125.434 Q 55.056 129.251 54.807 133.877 Q 54.559 138.503 54.455 143.481 Q 54.351 148.46 54.559 153.563 Q 54.766 158.666 55.679 163.437 Q 56.592 168.209 58.376 172.358 Q 60.16 176.507 63.188 179.597 Q 66.217 182.688 70.677 184.473 Q 75.137 186.257 81.402 186.257 Q 82.356 186.257 83.248 186.111 Q 84.14 185.966 84.97 185.593 L 85.219 186.422 Z  M 83.188 111.452 Q 83.188 111.825 83.064 112.157 Q 82.939 112.489 82.815 112.862 Q 82.193 114.729 81.467 116.513 Q 80.74 118.297 80.201 120.164 Q 79.247 123.442 78.666 127.861 Q 78.085 132.279 77.753 137.279 Q 77.421 142.278 77.338 147.568 Q 77.255 152.858 77.38 157.92 Q 80.74 158.542 84.412 159.019 Q 88.084 159.496 91.569 159.828 Q 95.055 160.16 98.146 160.347 Q 101.237 160.534 103.477 160.534 L 105.095 160.534 Q 104.307 154.227 104.016 148.004 Q 103.726 141.78 103.726 136.345 Q 103.726 134.769 103.768 132.57 Q 103.809 130.371 104.016 127.902 Q 104.224 125.434 104.618 122.882 Q 105.012 120.331 105.718 118.07 Q 106.423 115.809 107.46 114.004 Q 108.497 112.199 110.032 111.245 Q 110.779 110.788 111.651 110.394 Q 112.522 110 113.435 110 Q 114.762 110 114.762 111.328 Q 114.762 111.743 114.658 112.116 Q 114.555 112.489 114.43 112.863 Q 113.808 114.688 113.103 116.452 Q 112.397 118.215 111.816 120.082 Q 110.904 123.069 110.302 126.865 Q 109.701 130.662 109.348 134.935 Q 108.995 139.208 108.871 143.772 Q 108.746 148.336 108.788 152.838 Q 108.829 157.339 109.016 161.613 Q 109.203 165.886 109.493 169.579 Q 109.783 173.271 110.136 176.196 Q 110.489 179.121 110.862 180.947 L 110.032 181.279 Q 108.331 177.13 107.19 172.276 Q 106.049 167.421 105.344 162.235 Q 102.772 162.94 99.411 163.418 Q 96.051 163.895 92.586 164.164 Q 89.122 164.434 85.906 164.538 Q 82.691 164.641 80.45 164.641 L 77.629 164.641 Q 77.878 170.035 78.293 174.309 Q 78.708 178.582 79.247 181.03 L 78.418 181.362 Q 76.924 177.669 75.845 173.396 Q 74.766 169.122 74.02 164.558 Q 72.816 164.475 71.696 164.309 Q 70.576 164.143 69.497 163.853 Q 68.419 163.646 67.506 162.899 Q 66.593 162.152 65.929 161.156 Q 65.265 160.16 64.871 159.019 Q 64.477 157.878 64.477 156.8 Q 64.477 156.219 64.726 155.617 Q 64.975 155.016 65.763 155.016 Q 66.344 155.016 66.842 155.265 Q 68.087 155.763 69.643 156.198 Q 71.198 156.634 73.065 157.049 Q 72.485 151.614 72.256 146.344 Q 72.028 141.075 72.028 136.428 Q 72.028 134.81 72.09 132.611 Q 72.153 130.412 72.339 127.944 Q 72.526 125.475 72.941 122.924 Q 73.356 120.372 74.061 118.132 Q 74.766 115.892 75.824 114.087 Q 76.882 112.282 78.418 111.328 Q 79.123 110.871 80.015 110.436 Q 80.907 110 81.82 110 Q 82.442 110 82.815 110.374 Q 83.189 110.747 83.189 111.452 L 83.188 111.452 Z " fill="rgb(0,0,0)"/></g><g><g><path d=" M 47.87 40.435 L 47.87 31.304 L 38.739 40.435 L 47.87 40.435 Z " fill="none" vector-effect="non-scaling-stroke" stroke-width="3.043" stroke="rgb(0,0,0)" stroke-linejoin="round" stroke-linecap="butt" stroke-miterlimit="10"/><path d=" M 47.87 31.304 L 75.261 31.304 L 75.261 80 L 38.739 80 L 38.739 40.435 L 47.87 31.304 Z " fill="none" vector-effect="non-scaling-stroke" stroke-width="3.043" stroke="rgb(0,0,0)" stroke-linejoin="round" stroke-linecap="butt" stroke-miterlimit="10"/><line x1="55.478" y1="52.609" x2="58.522" y2="67.826" vector-effect="non-scaling-stroke" stroke-width="3.043" stroke="rgb(0,0,0)" stroke-linejoin="round" stroke-linecap="round" stroke-miterlimit="10"/><path d=" M 51.217 66.609 L 44.826 60.217 L 51.217 53.826" fill="none" vector-effect="non-scaling-stroke" stroke-width="3.043" stroke="rgb(0,0,0)" stroke-linejoin="round" stroke-linecap="butt" stroke-miterlimit="10"/><path d=" M 62.783 53.826 L 69.174 60.217 L 62.783 66.609" fill="none" vector-effect="non-scaling-stroke" stroke-width="3.043" stroke="rgb(0,0,0)" stroke-linejoin="round" stroke-linecap="butt" stroke-miterlimit="10"/></g><path d=" M 75.261 45.761 L 80.739 45.761 C 86.978 45.761 92 40.739 92 34.5 C 92 28.261 86.978 23.239 80.739 23.239 C 80.739 23.239 80.587 23.239 80.587 23.239 C 79.978 18.217 75.717 14.261 70.543 14.261 C 66.587 14.261 63.239 16.543 61.565 19.739 C 60.043 14.109 55.022 10 48.935 10 C 41.63 10 35.848 15.935 35.848 23.087 C 35.848 23.239 35.848 23.239 35.848 23.391 C 35.087 23.239 34.174 23.087 33.261 23.087 C 27.022 23.087 22 28.109 22 34.348 C 22 40.587 27.022 45.609 33.261 45.609 L 38.739 45.609" fill="none" vector-effect="non-scaling-stroke" stroke-width="3.043" stroke="rgb(0,0,0)" stroke-linejoin="round" stroke-linecap="butt" stroke-miterlimit="10"/></g></g></g></svg>