<?xml version="1.0" encoding="utf-8" standalone="yes"?>
<!DOCTYPE svg PUBLIC "-//W3C//DTD SVG 1.1//EN" "http://www.w3.org/Graphics/SVG/1.1/DTD/svg11.dtd">
<svg xmlns="http://www.w3.org/2000/svg" xmlns:xlink="http://www.w3.org/1999/xlink" xmlns:dc="http://purl.org/dc/elements/1.1/" xmlns:cc="http://web.resource.org/cc/" xmlns:rdf="http://www.w3.org/1999/02/22-rdf-syntax-ns#" xmlns:sodipodi="http://sodipodi.sourceforge.net/DTD/sodipodi-0.dtd" xmlns:inkscape="http://www.inkscape.org/namespaces/inkscape" height="321.75" style="zoom: 1;" width="1440" class="waves" baseProfile="full" version="1.1" preserveAspectRatio="xMidYMid meet" viewBox="0 0 960 214.5"><title>Soothing waves</title><style id="continuous-loop-anim"><![CDATA[
/* this must be a class, id is too strong a selector */
.waves > path {
	-webkit-animation: 17390ms ease-in-out infinite alternate-reverse both left-to-right;
	-moz-animation: 17390ms ease-in-out infinite alternate-reverse both left-to-right;
	-ms-animation: 17390ms ease-in-out infinite alternate-reverse both left-to-right;
	-o-animation: 17390ms ease-in-out infinite alternate-reverse both left-to-right;
	animation: 17390ms ease-in-out infinite alternate-reverse both left-to-right;
	-webkit-animation-timing-function: cubic-bezier(.25, 0, .75, 1);
	-moz-animation-timing-function: cubic-bezier(.25, 0, .75, 1);
	-ms-animation-timing-function: cubic-bezier(.25, 0, .75, 1);
	-o-animation-timing-function: cubic-bezier(.25, 0, .75, 1);
	animation-timing-function: cubic-bezier(.25, 0, .75, 1);
	-webkit-will-change: transform;
	-moz-will-change: transform;
	-ms-will-change: transform;
	-o-will-change: transform;
	will-change: transform;
}

svg > path:nth-of-type(1) {
	-webkit-animation-duration: 20580ms;
	-moz-animation-duration: 20580ms;
	-ms-animation-duration: 20580ms;
	-o-animation-duration: 20580ms;
	animation-duration: 20580ms;
}

svg > path:nth-of-type(2) {
	-webkit-animation-delay: -2690ms;
	-moz-animation-delay: -2690ms;
	-ms-animation-delay: -2690ms;
	-o-animation-delay: -2690ms;
	animation-delay: -2690ms;
	-webkit-animation-duration: 13580ms;
	-moz-animation-duration: 13580ms;
	-ms-animation-duration: 13580ms;
	-o-animation-duration: 13580ms;
	animation-duration: 13580ms;
}

g > path:nth-of-type(1) {
	-webkit-animation-delay: -820ms;
	-moz-animation-delay: -820ms;
	-ms-animation-delay: -820ms;
	-o-animation-delay: -820ms;
	animation-delay: -820ms;
	-webkit-animation-duration: 10730ms;
	-moz-animation-duration: 10730ms;
	-ms-animation-duration: 10730ms;
	-o-animation-duration: 10730ms;
	animation-duration: 10730ms;
}

svg > path:nth-of-type(1),
g > path:nth-of-type(2) {
	-webkit-animation-direction: alternate;
	-moz-animation-direction: alternate;
	-ms-animation-direction: alternate;
	-o-animation-direction: alternate;
	animation-direction: alternate;
}

@-webkit-keyframes left-to-right {
	0% {
		-webkit-transform: translateX(-750px);
		transform: translateX(-750px);
	}
	100% {
		-webkit-transform: translateX(-20px);
		transform: translateX(-20px);
	}
}

@-moz-keyframes left-to-right {
	0% {
		-moz-transform: translateX(-750px);
		transform: translateX(-750px);
	}
	100% {
		-moz-transform: translateX(-20px);
		transform: translateX(-20px);
	}
}

@-ms-keyframes left-to-right {
	0% {
		-ms-transform: translateX(-750px);
		transform: translateX(-750px);
	}
	100% {
		-ms-transform: translateX(-20px);
		transform: translateX(-20px);
	}
}

@-o-keyframes left-to-right {
	0% {
		-o-transform: translateX(-750px);
		transform: translateX(-750px);
	}
	100% {
		-o-transform: translateX(-20px);
		transform: translateX(-20px);
	}
}

@keyframes left-to-right {
	0% {
		-webkit-transform: translateX(-750px);
		-moz-transform: translateX(-750px);
		-ms-transform: translateX(-750px);
		-o-transform: translateX(-750px);
		transform: translateX(-750px);
	}
	100% {
		-webkit-transform: translateX(-20px);
		-moz-transform: translateX(-20px);
		-ms-transform: translateX(-20px);
		-o-transform: translateX(-20px);
		transform: translateX(-20px);
	}
}
]]></style><defs><linearGradient x2="100%" id="horizontal-liniar-gradient" x1="0%" y2="0%" y1="0%"><stop stop-color="#00A8DE" offset="0%"></stop><stop stop-color="#333391" offset="20%"></stop><stop stop-color="#E91388" offset="40%"></stop><stop stop-color="#EB2D2E" offset="60%"></stop></linearGradient></defs><path d="M2662.600098,1.666664 S2532,41.866665 2435,40.866665 c-19.6,-.2 -37.3,-1.3 -53.5,-2.8 c0,0 -421.3,-59.4 -541,-28.6 c-119.8,30.6 -206.2,75.7 -391,73.3 c-198.8,-2 -225.3,-15 -370.2,-50 c-145,-35 -218,37 -373.3,36 c-19.6,0 -37.5,-1 -53.7,-3 c0,0 -282.7,-36 -373.4,-38 C139,26.666664 75,46.666664 -1,46.666664 v106 c17,-1.4 20,-2.3 37.6,-1.2 c130.6,8.4 210,56.3 287,62.4 c77,6 262,-25 329.3,-23.6 c67,1.4 107,22.6 193,23.4 c155,1.5 249,-71 380,-62.5 c130,8.5 209,56.3 287,62.5 c77,6 126,-18 188,-18 c61.4,0 247,-38 307.4,-46 c159.3,-20 281.2,29 348.4,30 c67,2 132.2,6 217.4,7 c39.3,0 87,-11 87,-11 V1.666664  z " id="gradient-waved-path" fill="url(#horizontal-liniar-gradient)"></path><path d="M2657.893555,72.533333 S2571.293457,91.333336 2523.293457,88.333336 c-130.7,-8.5 -209.5,-56.3 -286.7,-62.4 s-125.7,18 -188.3,18 c-5,0 -10,-.4 -14.5,-.7 c-52,-5 -149.2,-43 -220.7,-39 c-31.7,2 -64,14 -96.4,30 c-160.4,80 -230.2,-5.6 -340.4,-18 c-110,-12 -146.6,20 -274,36 S814.693481,-0.666664 600.093445,-0.666664 C445.093445,-0.666664 350.293457,70.333336 219.493454,61.533337 C122.293457,55.333336 54.993458,27.333336 -6.006543,10.533336 V103.333336 c22,7.3 46,14.2 70.4,16.7 c110,12.3 147,-19.3 275,-35.5 s350,39.8 369,43 c27,4.3 59,8 94,10 c13,.5 26,1 39,1 c156,2 250,-70.3 381,-62 c130.5,8.2 209.5,56.3 286.7,62 c77,6.4 125.8,-18 188.3,-17.5 c5,0 10,.2 14.3,.6 c52,5 145,49.5 220.7,38.2 c32,-5 64,-15 96.6,-31 c160.5,-79.4 230.3,6 340,18.4 c110,12 146.3,-20 273.7,-36 l15.5,-2 V72.333336 l1,-.5  z " id="solid-color-waved-path" fill="#F2F5F5"></path><g id="static-waved-lines" stroke="#E2E9E9" stroke-width="1" fill="none"><path d="M0,51.4 c3.4,.6 7.7,1.4 11,2.3 c133.2,34 224.3,34 308.6,34 c110.2,0 116.7,36.6 229.8,26 c113,-11 128.7,-44 222,-42.6 C865,73 889,38 1002,27 c113,-10.8 119.6,25.6 229.8,25.6 c84.4,0 175.4,0 308.6,34 c133,34.2 277,-73 379.4,-84.3 c204,-22.5 283.6,128.7 283.6,128.7 " id="bottom-waved-line"></path><path d="M0,6 C115.7,-6 198.3,76.6 308,76.6 c109.6,0 131.8,-20 223,-28.3 c114.3,-10.2 238.2,0 238.2,0 s124,10.2 238.3,0 c91,-8.2 113.2,-28 223,-28 S1425,103 1541,91 c115.8,-11.8 153.3,-69 269.3,-84.6 c116,-15.5 198.4,71 308,71 c109.8,0 131.8,-20 223,-28 c114,-10.2 237.7,0 237.7,0 s37.4,2.4 82.8,3.7 " id="top-waved-line"></path></g></svg>