<?xml version="1.0" standalone="no"?>
<!DOCTYPE svg PUBLIC "-//W3C//DTD SVG 20010904//EN"
 "http://www.w3.org/TR/2001/REC-SVG-20010904/DTD/svg10.dtd">
<svg version="1.0" xmlns="http://www.w3.org/2000/svg"
 width="719.000000pt" height="719.000000pt" viewBox="0 0 719.000000 719.000000"
 preserveAspectRatio="xMidYMid meet">
<metadata>
Created by potrace 1.11, written by Peter Selinger 2001-2013
</metadata>
<g transform="translate(0.000000,719.000000) scale(0.100000,-0.100000)"
fill="#000000" stroke="none">
<path d="M0 3595 l0 -3595 3595 0 3595 0 0 3595 0 3595 -3595 0 -3595 0 0
-3595z m4186 1416 c240 -119 417 -398 469 -741 39 -252 1 -509 -110 -736 -62
-128 -139 -229 -228 -301 -56 -45 -154 -103 -174 -103 -5 0 -21 41 -36 91 -25
83 -33 97 -85 149 -101 100 -262 160 -430 160 -51 0 -95 -10 -185 -40 -119
-40 -180 -74 -228 -127 -43 -46 -109 -150 -125 -196 -8 -23 -16 -48 -19 -55
-3 -9 -16 -8 -52 6 -107 41 -244 152 -335 272 -62 81 -150 260 -178 360 -83
301 -60 623 65 887 58 124 105 193 197 289 63 65 88 84 132 99 l54 18 58 -62
c254 -275 656 -294 935 -44 41 36 83 79 93 96 17 26 23 29 60 24 22 -3 77 -24
122 -46z m-394 -1776 c131 -40 129 -101 -5 -141 -86 -26 -307 -26 -389 -1
-216 66 -75 172 217 163 73 -3 142 -11 177 -21z m-721 -881 c366 -215 835
-163 1154 128 37 34 56 46 60 36 2 -7 34 -137 70 -288 36 -151 68 -282 71
-291 5 -17 -12 -29 -146 -102 -36 -19 -132 -72 -215 -118 -82 -45 -163 -89
-180 -97 -16 -9 -32 -18 -35 -22 -3 -3 -20 -12 -37 -19 -18 -8 -33 -17 -33
-22 0 -5 -3 -8 -7 -7 -5 2 -38 -13 -74 -31 l-66 -35 -251 134 c-138 73 -254
133 -259 133 -4 1 -12 5 -18 9 -12 11 -41 27 -225 125 l-146 77 53 280 c29
155 53 282 53 284 0 1 35 -27 78 -63 42 -36 111 -86 153 -111z"/>
</g>
</svg>
